<svg xmlns="http://www.w3.org/2000/svg" viewBox="0 0 1077.05 312.07"><g id="Layer_2" data-name="Layer 2"><g id="Layer_3" data-name="Layer 3"><path d="M766.73,0c8.59,0,14,7.52,14,14.94,0,8.36-22.46,147.38-22.46,208.69,0,33.64,5.76,43.42,14.26,43.42,3.78,0,8.42-1.84,12.5-7A134.31,134.31,0,0,1,777,214.5c0-46.83,29.48-99.12,76.37-99.12,28.2,0,45.53,21.19,45.53,47.65,0,42.74-37.77,67.06-65.85,89,2.54,7.57,14.32,18.75,31.16,18.74,48.4,0,83.33-89.8,81.65-93.55-16.21,0-32-14.37-32-35.58,0-23.64,23.95-52.81,42.88-52.81,22.56,0,15.47,34.27,14.13,54.09,33-8.84,44.49-31.59,58.19-35.2,12.56-2.35,21.58,23.81,19.77,38.16-7.13,21.25-32.36,42.81-32.36,86.2,0,26.73,12.06,35,22.44,35,19.51,0,17.37-23,28.75-23,4.88,0,9.42,5.47,9.42,12.63,0,12.15-17.17,48.58-56,48.58-9.13,0-56-1.77-56-47.77,0-39.62,29.06-79,35.53-86.57a249.91,249.91,0,0,1-31,5.56c-4.07,23.4-33.4,128.81-116.27,128.81-26.18,0-45.52-12.31-56.65-25.65C782,294.44,763.81,309,743.44,304.46c-16.4-4.82-24.42-12.78-30.36-25.62-7.71,15.17-19.13,26.48-39,26.48-29.68,0-53.84-24.83-69-43.18-15,27.24-34.64,49.93-73,49.93-40,0-78.71-15.39-78.71-54.79,0-31.52,22.07-71.48,36.6-87.44a260.81,260.81,0,0,1-35.47,6.69c-3,15.95-27.16,128.76-136.69,128.76-60.57,0-70.67-66.9-70.67-84.45,0-77.07,47.63-105.53,79.36-105.53a28.91,28.91,0,0,1,15,3.65c4.86-1.56,10.5-3.93,15.8-3.93,17.42,0,31.47,42.68,31.47,84.73,0,36.48-9.41,57.08-10.7,60.16,31.07-23.47,53.51-73.06,52.58-82.62-12.65-6.11-28.41-9.79-28.41-35.82s26.15-52.59,42.83-52.59c9,0,16.28,4.88,16.28,25.89,0,10.18-1.63,21.11-2.09,28.13,34.83-9.11,47.4-35.3,59.86-35.3,9.79,0,18.46,18.55,18.46,34.61,0,14.45-34.64,50.49-34.64,93.51,0,21.65,6.52,47.23,28.47,47.23,23.41,0,47.16-24.7,54.71-47.9-12.39-20.12-34.45-61.91-34.45-84.88,0-15.39,26.68-34.71,42.78-34.71,14.89,0,14,37.5,24,64.5,13.69-24.2,26.28-53,39.5-65.23,12.56-9.2,46.67,5.4,46.67,21.29,0,10.88-34.5,28.11-68.57,79.94,10,18.44,28.54,50.93,49.68,50.93,10.94,0,20.36-12.57,20.36-16.68,0-42.29,16.53-213.29,24.67-226.51C737.1,13.45,754.37,0,766.73,0ZM346.36,215.29c0-24.9-8.36-57.13-31.06-66.69-9,13.76-14.12,32.89-14.12,62.12,0,56.45,22.61,59.08,23.83,59.08C332.82,269.8,346.36,256.28,346.36,215.29Zm507-60.81c-25.2,0-31.78,50.8-28.33,75.49,18.18-13.34,44.34-36.26,44.34-58.75C869.4,158.92,859.5,154.48,853.39,154.48Z"/><path d="M220.13,108.7c12.57,0,36.24,6.75,36.24,19.26,0,18.19-28.74,21.27-60.51,152.7-4.41,18.23-32.2,26.63-38.18,26.63-22.19,0-43.31-64.45-50.62-93.24-5.27,27.13-2.06,63.45-11,76-6.34,6.73-23.35,17.22-34.72,17.22C27.82,307.23-5.32,171.12.72,145.35c4.53-14.88,29.76-30,40.55-30,23.69,0,2.06,34.47,35.84,132.78,1.31-34.32,7.37-101.32,22.9-115.35,8.53-7.71,24.57-14.93,37.63-14.93,30.2,0-2.07,33.54,34.25,130.27,1.66-31.74,11.77-103.06,31.18-130.66C208.32,110,213.3,108.7,220.13,108.7Z"/></g></g></svg>