<?xml version="1.0" encoding="utf-8"?>
<!-- Generator: Adobe Illustrator 25.0.0, SVG Export Plug-In . SVG Version: 6.00 Build 0)  -->
<svg version="1.1" id="Layer_1" xmlns="http://www.w3.org/2000/svg" xmlns:xlink="http://www.w3.org/1999/xlink" x="0px" y="0px"
	 viewBox="0 0 169.2 52.7" style="enable-background:new 0 0 169.2 52.7;" xml:space="preserve">
<style type="text/css">
	.st0{fill:#FFFFFF;}
</style>
<g id="Layer_2_1_">
	<g id="Layer_4">
		<g id="Layer_2-2">
			<g id="Layer_1-2">
				<g id="Layer_2-2-2">
					<g id="Layer_1-2-2">
						<path class="st0" d="M0,22.7h14.3c6.7,0,9.5,3.5,9.5,7.9c0,3.1-2.1,5.8-5.1,6.5c3.2,0.6,5.5,3.5,5.3,6.7c0,4.7-3,8.1-9.6,8.1
							H0V22.7z M11.6,34.2c2.4,0,3.6-1.3,3.6-3c0-2-1.5-2.9-3.6-2.9H8.7v5.9H11.6z M8.7,39.8v6h3c3,0,3.6-1.9,3.6-3
							c0-1.7-1.1-3-3.6-3H8.7z"/>
						<path class="st0" d="M26.1,22.7h8.7v19c0,1.9,1.6,3.5,3.5,3.5s3.5-1.6,3.5-3.5v-19h8.7v19.1c0,6.8-5.2,10.9-12.2,10.9
							c-7.6,0-12.2-4.7-12.2-10.9L26.1,22.7z"/>
						<polygon class="st0" points="71.4,40 71.4,22.7 80.1,22.7 80.1,51.9 71.3,51.9 61.7,35.2 61.7,51.9 53,51.9 53,22.7 
							61.9,22.7 						"/>
						<polygon class="st0" points="91.7,40 91.7,51.9 83,51.9 83,22.7 91.7,22.7 91.7,34.6 99.8,22.7 109.9,22.7 99.2,37.3 
							109.9,51.9 99.8,51.9 						"/>
						<polygon class="st0" points="120.1,29.2 120.1,34.3 130.2,34.3 130.2,40.5 120.1,40.5 120.1,45.4 130.2,45.4 130.2,51.9 
							111.4,51.9 111.4,22.7 130.2,22.7 130.2,29.2 						"/>
						<path class="st0" d="M132.6,22.7h14c5.9-0.2,10.8,4.3,11,10.2l0,0v0.6c0.1,3.9-1.9,7.5-5.3,9.4l5.8,8.9h-10.2l-5-7.5h-1.6v7.5
							h-8.7L132.6,22.7z M144.8,37.7c2.1,0,3.9-1.7,3.9-3.8c0,0,0-0.1,0-0.1v-0.2c0.2-2.1-1.3-3.9-3.4-4.1c-0.1,0-0.1,0-0.2,0h-3.9
							v8.3L144.8,37.7z"/>
						<path class="st0" d="M159,47.4c0-2.8,2.2-5.1,5-5.2c2.8,0,5.1,2.2,5.2,5c0,2.8-2.2,5.1-5,5.2H164
							C161.2,52.4,159,50.2,159,47.4z"/>
					</g>
				</g>
				<path class="st0" d="M3.8,6.2v2.1C4.6,6.8,6.3,5.8,8,5.9c1.7-0.1,3.2,0.8,3.8,2.4c1-1.5,2.8-2.4,4.6-2.4c1.2,0,2.3,0.4,3.2,1.2
					c0.9,1.1,1.4,2.6,1.3,4v8.8h-3.8v-8.3C17.1,9.7,16.3,9,15,9c-1.4-0.1-2.6,1-2.7,2.4v8.5H8.6v-8.3C8.6,9.7,7.8,9,6.4,9
					C5,8.9,3.9,10,3.8,11.4c0,0,0,0,0,0v8.5H0V6.2H3.8z"/>
				<path class="st0" d="M23.8,19.2c-0.9-0.8-1.4-1.9-1.4-3.1c-0.1-1.4,0.7-2.8,2-3.4c1.6-0.8,3.3-1.1,5.1-1H31v-0.6
					c0-1.6-0.5-2.5-2.2-2.5c-1.1-0.1-2.1,0.7-2.3,1.8v0.1H23c0.1-1.4,0.8-2.7,1.9-3.5c1.2-0.8,2.7-1.2,4.2-1.1
					C30.6,5.8,32,6.2,33.2,7c1.1,1,1.7,2.5,1.6,4v8.9h-3.7v-1.7c-0.9,1.3-2.5,2.1-4.1,1.9C25.9,20.1,24.7,19.8,23.8,19.2z
					 M31.1,15.1V14h-1.5c-2.2,0-3.5,0.5-3.5,1.9c0,1,0.6,1.6,2,1.6C29.8,17.5,31.1,16.6,31.1,15.1z"/>
				<path class="st0" d="M38.2,18.4c-1.2-1.4-1.8-3.2-1.7-5.1V13c-0.1-1.9,0.5-3.7,1.7-5.2c1.1-1.2,2.7-1.9,4.3-1.9
					c1.8-0.1,3.4,0.8,4.3,2.3V0h3.8v19.9h-3.8v-2.3c-0.9,1.6-2.6,2.6-4.4,2.6C40.8,20.2,39.3,19.5,38.2,18.4z M46.9,13.1v-0.2
					c0-2.7-1.2-4.1-3.3-4.1s-3.3,1.4-3.3,4.1v0.2c0,2.7,1.3,4.1,3.2,4.1S46.9,15.9,46.9,13.1z"/>
				<path class="st0" d="M54.3,18.3c-1.4-1.3-2.1-3.2-2-5.1V13c-0.1-1.9,0.7-3.8,2-5.2c1.3-1.3,3.1-2,5-1.9C61,5.8,62.7,6.4,64,7.5
					c1.4,1.4,2.1,3.3,2,5.3v1h-9.9c0.1,2.3,1.3,3.6,3.4,3.6c1.8,0,2.6-0.8,2.8-1.9H66c-0.4,3-2.8,4.6-6.5,4.6
					C57.6,20.2,55.7,19.5,54.3,18.3z M59.3,8.5c-1.7,0-2.8,1.1-3.1,3.1h6.1C62.2,9.5,61.1,8.5,59.3,8.5z"/>
				<path class="st0" d="M72.3,2.3c0-1.1,0.9-2.1,2-2.1h0.1c1.1,0,2.1,0.9,2.2,2v0.1c0,1.2-0.9,2.1-2.1,2.1h-0.1
					c-1.1,0.1-2-0.8-2.1-1.9C72.3,2.5,72.3,2.4,72.3,2.3L72.3,2.3z M76.3,6.2v13.7h-3.7V6.2H76.3z"/>
				<path class="st0" d="M82.6,6.2v2.2c0.9-1.6,2.6-2.6,4.4-2.5c1.2-0.1,2.4,0.4,3.3,1.2c0.9,1.1,1.4,2.6,1.3,4v8.7h-3.8v-8.1
					c0-1.9-0.7-2.7-2.4-2.7c-1.5-0.1-2.8,1-2.9,2.5c0,0,0,0,0,0v8.4h-3.8V6.2H82.6z"/>
			</g>
		</g>
	</g>
</g>
</svg>
